<?xml version="1.0" encoding="utf-8"?>
<!-- Generator: Adobe Illustrator 23.0.3, SVG Export Plug-In . SVG Version: 6.00 Build 0)  -->
<svg version="1.1" id="Capa_1" xmlns="http://www.w3.org/2000/svg" xmlns:xlink="http://www.w3.org/1999/xlink" x="0px" y="0px"
	 viewBox="0 0 841.9 595.3" style="enable-background:new 0 0 841.9 595.3;" xml:space="preserve">
<path d="M665.8,276.1c-0.9-10-2.4-19.9-4.5-29.7c-8-36.4-23.4-69.3-46.3-98.8c-6.5-8.3-13.4-16.2-20.9-23.5c-0.5-0.5-0.9-1.4-2-1.1
	c-0.9,5.3-3.4,10.1-5.5,15c-1.3,3-3.2,5.7-5.3,8.2c-4.5,5-9.6,9.1-15.7,12c-10.5,5-21.4,6.5-32.7,3.7c-7.8-1.9-14.7-5.8-20.9-10.9
	c-5.6-4.7-9.7-10.4-12.4-17.2c-1.9-4.8-3-9.8-3.6-15c-1-7.7,0.1-15,3.5-22c0.3-0.5,0.5-1.1,0.7-1.6c2-5.6,5.2-10.4,9.5-14.5
	c2.3-2.2,4.7-4.2,7.4-6c0.5-0.4,1.1-0.8,2-1.5c-1.3-0.6-2.1-1-2.9-1.3c-26.2-11-53.5-17.2-81.9-18.7c-14.4-0.7-28.7-0.3-43,1.5
	c-12.7,1.6-25.2,4-37.5,7.6c-52.5,15.4-95.5,44.8-128.5,88.4c-29.5,39-45.6,83.1-48.9,131.9c-1.2,17.3-0.4,34.5,2.1,51.6
	c2.5,17.3,6.9,34.2,13,50.6c21.9,58.1,64.9,105.8,120.4,133.5c30.8,15.4,63.4,23.8,97.7,25.4c13.8,0.7,27.5,0.2,41.3-1.5
	c12.8-1.6,25.5-4,37.8-7.6c59-17.3,105.4-51.7,139-103.1c25.6-39.1,38.3-82.4,39.2-129.1C666.9,293.7,666.5,284.9,665.8,276.1z
	 M648.2,297.1c-3.8,64.4-36.6,118.4-82.8,152.9c-26,19.4-55,32.1-86.8,38.2c-18,3.5-36.2,4.6-54.5,3.3
	c-71-4.7-131.9-43.8-166.3-100.4c-13.3-21.8-22.1-45.3-26.6-70.5c-2.8-15.9-3.7-31.9-2.7-48c2.9-44.7,18.8-84.5,47.6-118.8
	c30.8-36.7,69.9-60,116.7-70.4c16.3-3.6,32.9-5.1,49.6-4.8c16,0.3,31.8,2.4,47.4,6.2c1.3,0.3,2.7,0.4,3.9,1.4
	c-0.4,0.7-0.8,1.4-1.2,2.1c-15.6,26.8-6.3,61.4,22.1,76.7c25.5,13.8,58.4,6.5,75.1-19c0.5-0.7,1-1.4,1.8-2.6
	c0.8,0.9,1.3,1.5,1.8,2.1c25,27,41.8,58.3,50.1,94.2C647.8,258.6,649.3,277.8,648.2,297.1z"/>
<path d="M340.4,284.4c1-0.9,1.1-2,1.5-3c4.4-11.6,8.7-23.2,13.2-34.7c1.9-4.8,3.9-9.5,6-14.2c0.9-2,2.1-3.8,3.2-5.7
	c0.4-0.7,0.7-1.4,1-2.1c0.9-2.3,1.9-4.6,3.4-6.6c2-2.6,4.5-4,7.9-3.8c4.1,0.3,8.1,0.7,12,2.1c1.6,0.5,3.1,1.3,4.5,2.2
	c1.3,0.7,1.9,1.9,2,3.4c0.2,3,0.5,5.9,0.9,8.9c1.1,9.4,2.2,18.9,3.4,28.3c1.1,8.6,2.4,17.3,3.8,25.9c1.4,8.8,2.9,17.6,5.3,26.2
	c0.4,1.5,0.9,3,1.5,4.5c0.4,0.9,0.8,1.9,1.4,2.6c1,1,1.3,2.1,1.6,3.4c0.5,2.5,0.4,4.9-0.2,7.4c-0.8,2.9-2.6,5.1-5.3,6.4
	c-9.5,4.7-21.6-0.6-24.5-10.8c-0.5-1.6-0.7-3.3-0.9-5c-1.6-10.7-3.3-21.4-4.8-32c-0.7-4.5-1.2-9-1.8-13.6c-0.1-0.4-0.1-0.8-0.2-1.2
	c-1,0.6-1.1,1.5-1.3,2.3c-2.1,6.6-4.2,13.2-6.2,19.8c-3.6,12-7.1,23.9-10.6,35.9c-0.1,0.5-0.3,0.9-0.4,1.4c-0.2,1.1-0.9,1.7-1.9,2.1
	c-1.1,0.4-2.2,0.9-3.4,1.2c-3.8,1-7.6,1.4-11.5,1.3c-2.6-0.1-4.8-1.1-6.8-2.6c-2-1.5-3.6-3.4-5.1-5.4c-2.1-2.9-3.7-6.1-5.1-9.4
	c-2.9-6.8-4.8-13.8-6.4-21c-1.4-6.3-2.5-12.6-3.2-19c-0.1-0.6-0.2-1.2-0.3-1.8c0-0.2-0.2-0.3-0.4-0.5c-0.9,0.9-1.1,2.1-1.5,3.2
	c-2.8,7.9-5.7,15.9-8.2,23.9c-2.8,8.9-5.4,17.8-8.1,26.7c-0.6,1.9-0.9,3.9-1.1,5.8c-0.3,2.2-1.3,3.9-3.1,5.2
	c-3.3,2.3-7.1,3.4-11.1,3.9c-1.1,0.1-2-0.2-2.7-0.9c-0.6-0.5-1.2-1-1.8-1.6c-4-4.1-7.3-8.6-10-13.6c-0.3-0.6-0.6-1.3-0.9-1.9
	c-1.5-3.2-1.7-6.5-0.2-9.8c1.6-3.5,3-7.1,4.7-10.6c4.7-9.6,9.6-19.1,14.2-28.8c2.9-6.1,5.5-12.3,8.2-18.5c0.7-1.7,1.3-3.5,1.8-5.3
	c0.7-2.2,1-4.4,1.1-6.7c0.2-6.2,1.5-12.2,4.1-17.8c1-2.3,2.3-4.4,4-6.2c1.9-2.2,4.3-3.1,7.2-2.6c2.8,0.4,5.4,1.3,7.8,2.7
	c5.7,3.4,9.9,8.1,12.6,14.2c0.5,1.1,0.9,2.2,1,3.4c0.5,5.7,1.8,11.2,3.1,16.6c1.9,7.9,3.9,15.8,5.9,23.7
	C339.8,282.9,340.1,283.6,340.4,284.4z"/>
<path d="M578.9,281.1c6,0,12.1-0.1,18.1,0c2,0,3.9,0.4,5.9,0.6c1.5,0.2,2.4,1,2.7,2.6c2,10.1,4.2,20.2,6.1,30.3
	c1,5.1,1.4,10.2,2.1,15.3c0.1,0.5,0,1,0.1,1.5c0.5,2.8-1,4.6-3.3,5.6c-2,0.9-4,1.7-6.1,2.2c-4.8,1.4-9.7,2-14.7,2.3
	c-13.8,0.9-27.5,0.1-41.1-2.9c-6.8-1.5-13.4-3.6-19.7-6.5c-4.4-2.1-8.6-4.6-12.3-7.7c-5.5-4.7-9.5-10.3-11.4-17.4
	c-0.7-2.7-1-5.4-1.1-8.2c-0.2-17.5,5.7-32.6,17.5-45.4c5.2-5.7,11.2-10.4,17.7-14.5c14-8.7,29.1-14.4,45.2-17.4
	c1.3-0.2,2.2-0.8,2.7-2c0.3-0.7,0.7-1.4,1-2.1c1.2-2.2,3-3.2,5.6-3.2c3.4,0,6.4,1.2,8.9,3.5c2.1,1.9,3.5,4.3,4.5,6.9
	c1.4,3.5,2,7.3,2.2,11c0.2,4.8-0.2,9.5-1.6,14.1c-0.6,1.9-1.3,3.7-2.5,5.4c-1.9,2.7-4.5,4.1-7.9,3.8c-3.4-0.3-6.4-1.4-8.8-3.9
	c-1.2-1.3-2.5-1.7-4.2-1.6c-12.2,0.7-23.5,4.2-33.9,10.9c-4.4,2.9-8.3,6.4-11.5,10.7c-4,5.4-6.2,11.5-6.2,18.3
	c0,4.8,1.8,8.9,5.4,12.1c2.3,2.1,5,3.6,7.8,4.8c4.4,1.8,9.1,2.9,13.8,3.5c6.5,0.8,13,1,19.6,0.1c1.7-0.2,3.3-0.7,4.9-1.1
	c0.9-0.2,1.3-0.8,1.3-1.8c0-1.4,0.2-2.8,0.1-4.2c-0.1-1.7-1.1-2.8-2.7-3.1c-1.3-0.3-2.7-0.4-4.1-0.4c-4.9,0.1-9.7,0.3-14.6-0.2
	c-1.8-0.2-3.5-0.5-5.2-0.9c-1.4-0.3-2.4-1.3-2.8-2.8c-1-3.8-1.8-7.5-1.6-11.4c0-1.1,0.2-2.2,0.5-3.2c0.5-1.6,1.6-2.4,3.3-2.5
	c3.2-0.1,6.3-0.3,9.5-0.5c3.6-0.2,7.1-0.3,10.7-0.5C578.9,281.2,578.9,281.1,578.9,281.1z"/>
<path d="M498.7,278.6c-0.1,6-0.2,11.9-1.3,17.8c-4.4,22.6-17.8,37-39.4,44.2c-2,0.6-4,1-6.1,1.5c-3.2,0.7-6.3,0.4-9.4-0.6
	c-6.3-2.1-11.5-5.8-15.7-10.8c-4.5-5.3-7.4-11.5-9.3-18.1c-1.9-6.4-2.6-13-2.9-19.7c-0.3-7.6,0.3-15.1,1.4-22.5
	c1.3-8.7,2.8-17.4,4.1-26.1c0.5-3.2,0.7-6.5,0.9-9.8c0.1-2.1-0.2-4.2-1.2-6c-0.5-0.9-0.4-1.7-0.2-2.6c0.5-1.7,1.5-3.1,3.2-3.7
	c1.3-0.5,2.6-1,4-1.1c3.8-0.3,7.5,0.1,11.2,1.2c0.4,0.1,0.7,0.3,1.1,0.4c6.5,2.5,9.7,7.5,8.8,14.4c-0.5,4.4-1.4,8.8-2.1,13.2
	c-1.9,11.7-3.6,23.5-4.3,35.4c-0.3,5.2-0.4,10.5,0.4,15.7c0.3,1.7,0.7,3.3,1.2,4.9c0.3,0.9,0.8,1.8,1.3,2.6c0.9,1.4,2.3,2.1,4.1,2
	c2.4,0,4.7-0.7,6.8-1.9c2.2-1.2,4-2.9,5.6-4.8c2.2-2.6,3.9-5.5,5.3-8.6c3.5-7.5,5.7-15.4,6.5-23.7c0.3-3,0.2-6.1-0.1-9.2
	c-0.7-10.1-2.8-20-5.9-29.7c-0.5-1.7-0.7-3.2-0.4-4.9c0.6-2.8,1.2-5.6,2.4-8.2c0.6-1.2,1.3-2.5,2.2-3.5c1.9-2.3,4.4-2.8,7.2-1.7
	c1.6,0.6,2.9,1.6,4.2,2.8c2.1,1.9,3.7,4.1,5.1,6.5c3.1,5.2,5.1,10.9,6.7,16.8c2,7.5,3.1,15.1,3.7,22.9
	C498.2,268.7,498.4,273.6,498.7,278.6z"/>
<g>
	<path d="M265.9,356.8h2.5l3.9,9.2c0.4,0.9,0.8,2.3,0.8,2.3h0c0,0,0.5-1.3,0.8-2.3l3.9-9.2h2.5l1.4,16.9h-2.3l-0.8-10.7
		c-0.1-1,0-2.5,0-2.5h0c0,0-0.5,1.6-0.9,2.5l-3.4,7.6h-2.1l-3.4-7.6c-0.4-0.9-0.9-2.5-0.9-2.5h0c0,0,0,1.5,0,2.5l-0.8,10.7h-2.4
		L265.9,356.8z"/>
	<path d="M293.4,356.5c4.9,0,8.7,3.8,8.7,8.6c0,5-3.8,8.9-8.7,8.9c-4.9,0-8.7-3.9-8.7-8.9C284.7,360.2,288.5,356.5,293.4,356.5z
		 M293.4,371.8c3.5,0,6.2-2.9,6.2-6.7c0-3.7-2.8-6.5-6.2-6.5c-3.5,0-6.3,2.8-6.3,6.5C287.2,368.9,290,371.8,293.4,371.8z"/>
	<path d="M303.3,356.8h2.6l4.2,12c0.3,0.9,0.6,2.3,0.6,2.3h0c0,0,0.3-1.4,0.6-2.3l4.2-12h2.5l-6.2,16.9h-2.4L303.3,356.8z"/>
	<path d="M320.6,356.8h2.4v16.9h-2.4V356.8z"/>
	<path d="M328.4,356.8h2.5l3.9,9.2c0.4,0.9,0.8,2.3,0.8,2.3h0c0,0,0.5-1.3,0.8-2.3l3.9-9.2h2.5l1.4,16.9h-2.3l-0.8-10.7
		c-0.1-1,0-2.5,0-2.5h0c0,0-0.5,1.6-0.9,2.5l-3.4,7.6h-2.1l-3.4-7.6c-0.4-0.9-0.9-2.5-0.9-2.5h0c0,0,0,1.5,0,2.5l-0.8,10.7h-2.4
		L328.4,356.8z"/>
	<path d="M348.4,356.8h2.4v16.9h-2.4V356.8z"/>
	<path d="M355.3,356.8h9.8v2.1h-7.5v5.3h6.1v2.1h-6.1v5.4h7.9v2.1h-10.2V356.8z"/>
	<path d="M369.1,356.8h2.3l7.5,11c0.6,0.9,1.4,2.4,1.4,2.4h0c0,0-0.2-1.5-0.2-2.4v-11h2.4v16.9h-2.3l-7.6-11
		c-0.6-0.9-1.4-2.5-1.4-2.5h0c0,0,0.2,1.5,0.2,2.5v11h-2.4V356.8z"/>
	<path d="M390.8,358.8H385v-2.1h14v2.1h-5.8v14.9h-2.4V358.8z"/>
	<path d="M408.8,356.5c4.9,0,8.7,3.8,8.7,8.6c0,5-3.8,8.9-8.7,8.9c-4.9,0-8.7-3.9-8.7-8.9C400.1,360.2,403.9,356.5,408.8,356.5z
		 M408.8,371.8c3.5,0,6.2-2.9,6.2-6.7c0-3.7-2.8-6.5-6.2-6.5c-3.5,0-6.3,2.8-6.3,6.5C402.5,368.9,405.3,371.8,408.8,371.8z"/>
	<path d="M426.8,356.8h2.4v10.9c0,2.6,1.7,4.1,4.3,4.1c2.6,0,4.3-1.5,4.3-4.1v-10.9h2.4v10.9c0,3.8-2.7,6.3-6.7,6.3
		s-6.7-2.5-6.7-6.3V356.8z"/>
	<path d="M444.5,356.8h2.3l7.5,11c0.6,0.9,1.4,2.4,1.4,2.4h0c0,0-0.2-1.5-0.2-2.4v-11h2.4v16.9h-2.3l-7.6-11
		c-0.6-0.9-1.4-2.5-1.4-2.5h0c0,0,0.2,1.5,0.2,2.5v11h-2.4V356.8z"/>
	<path d="M462.7,356.8h2.4v16.9h-2.4V356.8z"/>
	<path d="M477.2,356.5c4.9,0,8.7,3.8,8.7,8.6c0,5-3.8,8.9-8.7,8.9c-4.9,0-8.7-3.9-8.7-8.9C468.5,360.2,472.3,356.5,477.2,356.5z
		 M477.2,371.8c3.5,0,6.2-2.9,6.2-6.7c0-3.7-2.8-6.5-6.2-6.5s-6.3,2.8-6.3,6.5C470.9,368.9,473.7,371.8,477.2,371.8z M477.9,352.5
		h2.5l-2.3,3h-1.9L477.9,352.5z"/>
	<path d="M489.3,356.8h2.3l7.5,11c0.6,0.9,1.4,2.4,1.4,2.4h0c0,0-0.2-1.5-0.2-2.4v-11h2.4v16.9h-2.3l-7.6-11
		c-0.6-0.9-1.4-2.5-1.4-2.5h0c0,0,0.2,1.5,0.2,2.5v11h-2.4V356.8z"/>
	<path d="M521.1,356.5c4.1,0,6.2,2,6.2,2l-1.2,1.8c0,0-1.9-1.7-4.8-1.7c-4,0-6.4,2.9-6.4,6.5c0,3.9,2.7,6.6,6.2,6.6
		c2.9,0,4.8-2.1,4.8-2.1v-2.4h-2.8v-2.1h4.9v8.5h-2.1v-1.1c0-0.4,0-0.7,0-0.7h0c0,0-1.8,2.1-5.2,2.1c-4.6,0-8.3-3.6-8.3-8.8
		C512.5,360.3,516.2,356.5,521.1,356.5z"/>
	<path d="M531.9,356.8h5.2c1.8,0,2.5,0.1,3.2,0.4c1.7,0.6,2.9,2.3,2.9,4.6c0,2.2-1.2,4-3,4.6v0c0,0,0.2,0.2,0.5,0.8l3.6,6.6h-2.7
		l-3.6-6.7h-3.6v6.7h-2.4V356.8z M537.6,364.9c1.8,0,3-1.2,3-3.1c0-1.2-0.5-2.1-1.3-2.6c-0.5-0.2-1-0.4-2.3-0.4h-2.7v6.1H537.6z"/>
	<path d="M554.8,356.5c4.9,0,8.7,3.8,8.7,8.6c0,5-3.8,8.9-8.7,8.9c-4.9,0-8.7-3.9-8.7-8.9C546.1,360.2,549.9,356.5,554.8,356.5z
		 M554.8,371.8c3.5,0,6.2-2.9,6.2-6.7c0-3.7-2.8-6.5-6.2-6.5s-6.3,2.8-6.3,6.5C548.5,368.9,551.3,371.8,554.8,371.8z"/>
	<path d="M574.5,356.5c4.9,0,8.7,3.8,8.7,8.6c0,5-3.8,8.9-8.7,8.9c-4.9,0-8.7-3.9-8.7-8.9C565.8,360.2,569.6,356.5,574.5,356.5z
		 M574.5,371.8c3.5,0,6.2-2.9,6.2-6.7c0-3.7-2.8-6.5-6.2-6.5s-6.3,2.8-6.3,6.5C568.2,368.9,571,371.8,574.5,371.8z"/>
	<path d="M584.3,356.8h2.6l4.2,12c0.3,0.9,0.6,2.3,0.6,2.3h0c0,0,0.3-1.4,0.6-2.3l4.2-12h2.5l-6.2,16.9h-2.4L584.3,356.8z"/>
	<path d="M601.7,356.8h9.8v2.1H604v5.3h6.1v2.1H604v5.4h7.9v2.1h-10.2V356.8z"/>
</g>
</svg>
